<svg xmlns="http://www.w3.org/2000/svg" width="374" height="181.499" viewBox="0 0 374 181.499"><g transform="translate(0 75.037)"><path d="M539.178,193.716,562,204.525c-6.633,13.265-20.059,27.619-44.894,27.619-30.122,0-53.383-19.589-55.531-48.76l-13.437,47.649H420.058l-15.585-65.239-15.58,65.239H360.81l-22.3-78.625-18.885,9.84c-3.866-6.793-11.736-13.117-21.76-13.117-16.822,0-28.708,12.956-28.708,29.779s11.885,29.779,28.708,29.779c7.555,0,15.276-3.087,18.982-6.174V194.5H293.7v-23.3h49.671v40.89c-11.1,12.189-26.067,20.059-45.507,20.059-30.707,0-55.7-20.528-55.7-53.234s25-53.228,55.7-53.228c17.4,0,29.59,6.988,37.557,15.94l-4.078-14.835h29.779L376.7,196.042l17.59-69.254h20.362l17.59,69.254,15.425-69.254H477.61l-5.31,19.148c9.989-12.733,26.073-20.253,44.808-20.253,24.835,0,38.113,14.039,44.894,27.614l-22.825,10.8c-3.4-8.179-12.189-14.961-22.069-14.961-16.822,0-28.708,12.956-28.708,29.779s11.885,29.779,28.708,29.779c9.88,0,18.672-6.793,22.069-14.972" transform="translate(-242.159 -125.682)" fill="#3fae2a"/></g><g transform="translate(319.842)"><circle cx="6.296" cy="6.296" r="6.296" transform="translate(10.388)" fill="#00abc7"/><circle cx="6.296" cy="6.296" r="6.296" transform="translate(20.777 10.388)" fill="#00abc7"/><circle cx="6.296" cy="6.296" r="6.296" transform="translate(10.388 20.777)" fill="#00abc7"/><circle cx="6.296" cy="6.296" r="6.296" transform="translate(0 10.388)" fill="#00abc7"/><circle cx="6.296" cy="6.296" r="6.296" transform="translate(31.173 20.785)" fill="#3fae2a"/><circle cx="6.296" cy="6.296" r="6.296" transform="translate(41.567 31.178)" fill="#3fae2a"/><circle cx="6.296" cy="6.296" r="6.296" transform="translate(31.178 41.567)" fill="#3fae2a"/><circle cx="6.296" cy="6.296" r="6.296" transform="translate(20.785 31.173)" fill="#3fae2a"/><circle cx="6.296" cy="6.296" r="6.296" transform="translate(10.396 41.561)" fill="#00abc7"/><circle cx="6.296" cy="6.296" r="6.296" transform="translate(20.79 51.955)" fill="#00abc7"/><circle cx="6.296" cy="6.296" r="6.296" transform="translate(10.402 62.343)" fill="#00abc7"/><circle cx="6.296" cy="6.296" r="6.296" transform="translate(0.008 51.95)" fill="#00abc7"/></g></svg>
